# xmcd CD database file
#
# Track frame offsets:
#	150
#	14963
#	32251
#	45151
#	59870
#	76333
#	90208
#	101646
#	120546
#	139559
#	161122
#	176197
#
# Disc length: 2626 seconds
#
# Revision: 0
# Processed by: cddbd v1.5.2PL0 Copyright (c) Steve Scherf et al.
# Submitted via: CDex 1.70beta2
#
DISCID=960a400c
DTITLE=Vaious - Solo Guitar Christmas 
DYEAR=2016
DGENRE=New Age
TTITLE0=Santa Claus Is Coming To Town-okapi
TTITLE1=Wonderful Christmas Time-Daisuke Minamizawa
TTITLE2=Frosty The Snowman-Kanaho
TTITLE3=Jingle Bells-Dong Yun-Chang
TTITLE4=Jesus,Joy Of Man's Desiring-Pukichi
TTITLE5=Christma Time Is Here-Seven
TTITLE6=White Christmas-Ayumu Nishimura
TTITLE7=Hark The Herald Angles Sing-Daniel Coughlin
TTITLE8=The First Noel-Seiji lgusa
TTITLE9=The Christmas Song-Satoshi Gogo
TTITLE10=Candlelight Carol-Michio Ogawa
TTITLE11=Winter Song-Hideaki Domon
EXTD=YEAR: 2016
EXTT0=
EXTT1=
EXTT2=
EXTT3=
EXTT4=
EXTT5=
EXTT6=
EXTT7=
EXTT8=
EXTT9=
EXTT10=
EXTT11=
PLAYORDER=
